<?xml version="1.0" encoding="utf-8"?>
<!-- Generator: Adobe Illustrator 27.5.0, SVG Export Plug-In . SVG Version: 6.00 Build 0)  -->
<svg version="1.1" xmlns="http://www.w3.org/2000/svg" xmlns:xlink="http://www.w3.org/1999/xlink" x="0px" y="0px"
	 viewBox="0 0 750 500" style="enable-background:new 0 0 750 500;" xml:space="preserve">
<g id="BACKGROUND">
	<rect style="fill:#FFFFFF;" width="750" height="500"/>
</g>
<g id="OBJECTS">
	<g>
		<g>
			<path style="fill:#FFE698;" d="M25.013,360.483c0,0-25.013-23.353-3.366-61.726c14.916-26.441-15.922-71.787,12.677-100.074
				s99.426-18.797,104.042,47.946c5.031,72.728,74.808-1.658,134.104-0.043c76.437,2.083,117.672,45.52,89.074,113.897"/>
			<path style="fill:#3C3563;" d="M25.013,377.015c0,0-44.561,41.499,29.929,53.449c74.489,11.95,83.45-25.087,161.175,7.072
				c138.777,57.419,203.623-8.688,145.428-60.522C279.739,377.015,25.013,377.015,25.013,377.015z"/>
			<rect x="25.013" y="360.483" style="fill:#FFC16B;" width="336.532" height="16.532"/>
		</g>
		<g>
			<rect x="230.38" y="160.226" style="fill:#6B96F6;" width="16.988" height="26.792"/>
			<polygon style="fill:#6B96F6;" points="201.701,79.682 201.701,132.59 221.815,132.59 221.815,167.159 261.948,167.159 
				261.948,155.066 290.965,155.066 290.965,79.682 280.512,79.682 280.512,62.047 221.815,62.047 221.815,79.312 			"/>
			<polygon style="fill:#6B96F6;" points="306.383,195.258 291.257,190.213 309.024,132.522 324.15,137.567 			"/>
			<polygon style="fill:#6B96F6;" points="186.896,143.27 170.956,143.672 169.251,94.896 185.191,94.494 			"/>
		</g>
		<g>
			<path style="fill:#FF9F61;" d="M276.443,347.981l0.02,33.51c0,2.02,7.5,3.65,16.75,3.65c9.26,0,16.76-1.64,16.76-3.66v-8.82
				l-0.01-12.9v-11.8L276.443,347.981z"/>
			<path style="fill:#FFCB61;" d="M276.447,347.977c0.001,2.02,7.503,3.655,16.757,3.652c9.254-0.003,16.755-1.644,16.754-3.664
				s-7.503-3.655-16.757-3.652S276.446,345.957,276.447,347.977z"/>
			<path style="fill:#FFFFFF;" d="M279.559,347.976c0.001,1.215,6.109,2.197,13.644,2.195c7.535-0.003,13.643-0.99,13.643-2.204
				c0-1.215-6.109-2.197-13.644-2.195C285.667,345.775,279.559,346.762,279.559,347.976z"/>
			<path style="fill:#3051A1;" d="M277.233,353.963c0-1.286,1.041-2.328,2.327-2.329c1.286,0,2.328,1.041,2.329,2.327
				c0.001,1.286-1.041,2.328-2.327,2.329C278.276,356.29,277.234,355.248,277.233,353.963z"/>
			<path style="fill:#FFE698;" d="M297.469,362.033v12.378c6.421,0.271,12.504-1.75,12.504-1.75l-0.01-12.9
				C309.963,359.761,305.327,361.735,297.469,362.033z"/>
		</g>
		<g>
			<polygon style="fill:#FFFFFF;" points="323.685,402.968 235.85,412.127 266.097,440.833 362.342,424.565 			"/>
			<g>
				<polygon style="fill:#DA5650;" points="267.804,408.632 267.804,422.998 298.978,427.802 343.782,419.254 343.782,405.903 
					343.782,403.13 308.365,400.099 				"/>
				<polygon style="opacity:0.2;fill:#3C2F71;" points="270.547,410.676 270.547,418.154 298.75,422.427 298.75,419.008 
					340.627,404.693 307.51,401.826 				"/>
				<polygon style="fill:#6B96F6;" points="270.547,418.154 301.1,409.394 324.066,410.354 298.75,419.008 298.75,422.427 				"/>
			</g>
		</g>
		<g>
			<path style="opacity:0.2;fill:#AE376C;" d="M333.417,381.563c-0.094,0-0.189-0.013-0.284-0.041l-12.702-3.76V239.865
				c0-0.552,0.448-1,1-1c0.552,0,1,0.448,1,1v136.402l11.27,3.336c0.53,0.157,0.832,0.713,0.675,1.243
				C334.246,381.281,333.848,381.563,333.417,381.563z"/>
			<g>
				<path style="fill:#FFCB61;" d="M300.682,235.639l34.148-2.387c3.656-0.255,6.412-3.426,6.157-7.082l0,0
					c-0.256-3.656-3.426-6.412-7.082-6.157l-34.148,2.387L300.682,235.639z"/>
				<path style="fill:#FFAA61;" d="M299.757,222.4c-7.636,0.534-6.293,13.743,0.925,13.239
					C308.835,235.069,307.931,221.829,299.757,222.4z"/>
				<path style="fill:#3051A1;" d="M327.876,336.544c-0.521,0-0.961-0.404-0.997-0.933l-6.38-94.681l-29.947,2.018l-0.961-14.267
					l10.557-0.711c0.561-0.04,1.028,0.38,1.065,0.93c0.037,0.551-0.379,1.028-0.93,1.065l-8.562,0.577l0.692,10.275l29.947-2.018
					l6.514,96.676c0.037,0.551-0.379,1.028-0.93,1.065C327.922,336.543,327.899,336.544,327.876,336.544z"/>
				<path style="fill:#DA5650;" d="M331.09,383.225c1.378-0.093,2.419-1.285,2.326-2.662l-7.422-110.145
					c-0.093-1.378-1.285-2.419-2.662-2.326c-1.378,0.093-2.419,1.285-2.326,2.662l7.422,110.145
					C328.521,382.276,329.713,383.318,331.09,383.225z"/>
			</g>
		</g>
		<path style="fill:#3051A1;" d="M276.452,364.783c-4.543,0-5.058-2.789-5.106-3.643c-0.187-3.234,3.514-7.641,8.1-8.171
			l0.229,1.986c-3.601,0.417-6.451,4.024-6.333,6.069c0.083,1.454,1.737,1.759,3.11,1.759V364.783z"/>
		<g>
			<ellipse style="opacity:0.2;fill:#3C2F71;" cx="147.72" cy="398.099" rx="128.693" ry="11.579"/>
			<g>
				<g>
					<g>
						<path style="fill:#8592B7;" d="M137.529,189.911H90.974c-0.829,0-1.5-0.671-1.5-1.5c0-0.829,0.671-1.5,1.5-1.5h46.556
							c0.829,0,1.5,0.671,1.5,1.5C139.029,189.24,138.358,189.911,137.529,189.911z"/>
						<path style="fill:#8592B7;" d="M171.661,374.013h-46.556c-0.829,0-1.5-0.672-1.5-1.5s0.671-1.5,1.5-1.5h46.556
							c0.829,0,1.5,0.672,1.5,1.5S172.49,374.013,171.661,374.013z"/>
						<path style="fill:#8592B7;" d="M139.697,199.718H93.141c-0.829,0-1.5-0.671-1.5-1.5s0.671-1.5,1.5-1.5h46.556
							c0.829,0,1.5,0.671,1.5,1.5S140.525,199.718,139.697,199.718z"/>
					</g>
					<path style="fill:#859EDE;" d="M178.014,397.131c-0.705,0-1.332-0.498-1.471-1.215L128.641,148.14H85.119l44.817,247.223
						c0.147,0.815-0.394,1.596-1.208,1.743c-0.818,0.15-1.596-0.394-1.744-1.208L81.526,145.14h49.59l48.372,250.206
						c0.157,0.814-0.375,1.601-1.188,1.758C178.204,397.122,178.109,397.131,178.014,397.131z"/>
					<g>
						<path style="fill:#859EDE;" d="M122.503,181.105H75.947c-0.829,0-1.5-0.671-1.5-1.5c0-0.829,0.671-1.5,1.5-1.5h46.556
							c0.829,0,1.5,0.671,1.5,1.5C124.003,180.434,123.331,181.105,122.503,181.105z"/>
						<path style="fill:#859EDE;" d="M115.941,213.736H69.385c-0.829,0-1.5-0.671-1.5-1.5c0-0.829,0.671-1.5,1.5-1.5h46.556
							c0.829,0,1.5,0.671,1.5,1.5C117.441,213.065,116.769,213.736,115.941,213.736z"/>
						<path style="fill:#859EDE;" d="M108.846,246.663H62.291c-0.829,0-1.5-0.671-1.5-1.5s0.671-1.5,1.5-1.5h46.556
							c0.829,0,1.5,0.671,1.5,1.5S109.675,246.663,108.846,246.663z"/>
						<path style="fill:#859EDE;" d="M102.107,277.172H55.551c-0.829,0-1.5-0.672-1.5-1.5c0-0.828,0.671-1.5,1.5-1.5h46.556
							c0.829,0,1.5,0.672,1.5,1.5C103.607,276.5,102.935,277.172,102.107,277.172z"/>
						<path style="fill:#859EDE;" d="M95.545,309.803H48.989c-0.829,0-1.5-0.672-1.5-1.5c0-0.828,0.671-1.5,1.5-1.5h46.556
							c0.829,0,1.5,0.672,1.5,1.5C97.045,309.131,96.374,309.803,95.545,309.803z"/>
						<path style="fill:#859EDE;" d="M88.451,342.731H41.895c-0.829,0-1.5-0.672-1.5-1.5c0-0.828,0.671-1.5,1.5-1.5h46.556
							c0.829,0,1.5,0.672,1.5,1.5C89.951,342.059,89.28,342.731,88.451,342.731z"/>
						<path style="fill:#859EDE;" d="M81.357,373.223H34.801c-0.829,0-1.5-0.672-1.5-1.5c0-0.828,0.671-1.5,1.5-1.5h46.556
							c0.829,0,1.5,0.672,1.5,1.5C82.857,372.551,82.185,373.223,81.357,373.223z"/>
					</g>
					<path style="fill:#A1C4E7;" d="M28.964,396.261c-0.105,0-0.212-0.011-0.32-0.034c-0.81-0.176-1.323-0.975-1.147-1.784
						L81.63,145.14h49.604L79.988,395.063c-0.166,0.81-0.96,1.329-1.771,1.168c-0.812-0.167-1.334-0.96-1.168-1.772l50.506-246.319
						H84.049l-53.62,246.939C30.276,395.781,29.655,396.261,28.964,396.261z"/>
					<path style="fill:#3C3563;" d="M130.945,151.137h-48.68c-3.489,0-6.318-2.829-6.318-6.318l0,0c0-3.49,2.829-6.318,6.318-6.318
						h48.68c3.49,0,6.318,2.829,6.318,6.318l0,0C137.263,148.309,134.434,151.137,130.945,151.137z"/>
				</g>
				<g>
					<path style="fill:#3051A1;" d="M88.184,104.257c-0.528,0-0.97-0.414-0.998-0.948c-0.02-0.38-0.427-9.383,4.599-14.677
						c2.331-2.456,5.437-3.7,9.23-3.7c0.552,0,1,0.448,1,1c0,0.552-0.448,1-1,1c-3.224,0-5.841,1.035-7.779,3.077
						c-4.441,4.678-4.057,13.112-4.053,13.197c0.029,0.551-0.395,1.022-0.947,1.05C88.22,104.257,88.202,104.257,88.184,104.257z"/>
					<path style="fill:#FF9F61;" d="M115.62,105.015l-0.02,33.51c0,2.02-7.5,3.65-16.75,3.65c-9.26,0-16.76-1.64-16.76-3.66v-8.82
						l0.01-12.9v-11.8L115.62,105.015z"/>
					<path style="fill:#FFCB61;" d="M115.617,105.011c-0.001,2.02-7.503,3.655-16.757,3.652c-9.254-0.003-16.755-1.644-16.755-3.664
						c0.001-2.02,7.503-3.655,16.757-3.652C108.116,101.351,115.618,102.991,115.617,105.011z"/>
					<path style="fill:#4B67D6;" d="M112.505,105.01c0,1.215-6.109,2.197-13.644,2.195c-7.535-0.003-13.643-0.99-13.643-2.204
						c0-1.215,6.109-2.197,13.644-2.195C106.397,102.809,112.505,103.796,112.505,105.01z"/>
					<path style="fill:#3051A1;" d="M112.503,111.996c-0.029,0-0.058-0.001-0.087-0.004c-0.55-0.047-0.958-0.532-0.91-1.082
						c1.151-13.377-1.753-19.188-4.392-21.708c-2.792-2.667-5.834-2.298-5.961-2.28c-0.541,0.072-1.049-0.308-1.125-0.854
						c-0.075-0.545,0.301-1.048,0.845-1.127c0.165-0.021,4.068-0.543,7.576,2.77c4.333,4.091,6.032,11.954,5.049,23.371
						C113.454,111.603,113.017,111.996,112.503,111.996z"/>
					<path style="fill:#3051A1;" d="M114.83,110.997c0-1.286-1.041-2.328-2.327-2.329c-1.286,0-2.328,1.041-2.329,2.327
						c0,1.286,1.041,2.328,2.327,2.329C113.787,113.324,114.83,112.283,114.83,110.997z"/>
					<path style="fill:#FFE698;" d="M94.595,119.067v12.378c-6.421,0.271-12.504-1.75-12.504-1.75l0.01-12.9
						C82.1,116.795,86.737,118.769,94.595,119.067z"/>
				</g>
			</g>
			<g>
				<path style="fill:#3051A1;" d="M233.716,271.18c-0.477,0-0.899-0.342-0.983-0.828c-0.075-0.431-1.797-10.605,2.014-15.672
					c1.227-1.631,2.882-2.57,4.92-2.792c0.544-0.061,1.042,0.337,1.102,0.886c0.06,0.55-0.337,1.043-0.886,1.103
					c-1.486,0.161-2.643,0.817-3.537,2.004c-3.292,4.373-1.66,14.031-1.643,14.128c0.094,0.544-0.27,1.063-0.814,1.157
					C233.831,271.175,233.773,271.18,233.716,271.18z"/>
				<path style="fill:#FFAEA5;" d="M233.634,250.548l-32.746-12.926l4.081-18.398l36.137,24.996c0,0,5.739,3.963,7.23,4.68
					c1.491,0.716,0.782,5.527,0.017,6.326c-0.888,0.928-2.441,1.267-4.212,0.601c-1.114,0.74-2.651-0.009-2.651-0.009
					c-1.569-0.154-2.491-1.138-2.969-1.886c-0.764-1.195,0.988-1.232,0.988-1.232l-0.593-0.607l-1.557,0.426L233.634,250.548z"/>
				<path style="fill:#3051A1;" d="M165.418,172.651c0,0-3.215,20.813,1.641,36.443c4.857,15.63,30.961-4.157,30.961-4.157
					l-1.33-40.4C196.69,164.537,172.554,164.806,165.418,172.651z"/>
				<g>
					<path style="fill:#FFCB61;" d="M178.956,385.779l-0.5,8.375c0,0,13.002,4.237,12.993,6.075
						c-4.988-0.025-26.056-0.32-26.056-0.32l1.404-15.524L178.956,385.779z"/>
					<path style="fill:#FFCB61;" d="M230.63,382.597l0.56,10.91c0,0,10.824,3.981,10.858,5.819
						c-4.987,0.092-24.036,0.501-24.036,0.501l-0.193-17.011L230.63,382.597z"/>
					<path style="fill:#DA5650;" d="M232.85,385.795l-7.91,0.25l-1.01,0.03l-7.71,0.2l-8.66-60.59l-9.04-27.03l-16.74,89.12
						l-16.59-0.07l5.16-66.62c0,0-2.13-36.42,2.83-52.43c19.94-3.24,42.93-3.06,42.93-3.06s10.57,43.19,12.12,50.86
						C229.48,322.605,232.85,385.795,232.85,385.795z"/>
					<path style="fill:#4B67D6;" d="M216.12,265.595c-9.85,4.48-42.93,3.06-42.93,3.06s-3.09-17.93-4.97-22.46
						c-6.81-16.43-11.74-27.09-7-39.06c3.42-8.63,16.55-11.71,16.55-11.71s12.38-3.62,22.74,5.52c4.59,4.05,9.23,18.1,12.24,33.58
						c1.21,6.22,2.16,12.67,2.73,18.79C215.9,257.635,216.12,261.795,216.12,265.595z"/>
					<path style="opacity:0.2;fill:#3C2F71;" d="M215.48,253.315c-3.65,1.69-10.19,3.47-17.46-0.43
						c-11.11-5.97-23.179-24.915-23.179-24.915l37.909,6.555C213.96,240.745,214.91,247.195,215.48,253.315z"/>
					<path style="fill:#FFBDB4;" d="M188.428,186.307l-0.21,9.392l2.897,1.297v11.106c0,0-10.748-6.047-17.999-8.811l2.851-2.865
						l-1.288-15.192"/>
					<path style="fill:#FFBDB4;" d="M193.292,168.128c0,0,2.333,8.731,2.189,13.614c-0.143,4.883-2.184,9.51-7.499,9.033
						c-5.316-0.477-10.405-3.706-12.125-7.958c-2.246,0.681-5.206-2.631-5.197-5.551c0.01-2.92,2.572-2.669,3.536-1.238
						c0.964,1.431,2.257,0.536,2.257,0.536l-0.175-5.476C176.277,171.088,186.004,170.849,193.292,168.128z"/>
					<path style="fill:#DA5650;" d="M195.838,162.797l-23.262,7.531l-7.154,2.32c-3.336-5.972-1.167-12.501,5.317-16.221
						c2.063-1.182,4.564-2.078,7.463-2.583C191.726,151.486,195.838,162.797,195.838,162.797z"/>
					<path style="opacity:0.2;fill:#62458B;" d="M172.575,170.328l-7.154,2.32c-3.336-5.972-1.167-12.501,5.317-16.221
						C169.759,160.402,169.608,165.463,172.575,170.328z"/>
					<path style="fill:#2A3F7A;" d="M191.983,174.091c0,0.522,0.332,0.946,0.741,0.946c0.409,0,0.741-0.423,0.741-0.946
						s-0.332-0.945-0.741-0.945C192.315,173.145,191.983,173.569,191.983,174.091z"/>
					<path style="fill:#2A3F7A;" d="M184.777,175.42c0,0.522,0.332,0.945,0.741,0.945c0.409,0,0.741-0.423,0.741-0.945
						c0-0.522-0.332-0.945-0.741-0.945C185.109,174.474,184.777,174.898,184.777,175.42z"/>
					<path style="fill:#EE6F79;" d="M190.098,179.57c-0.5,0-1.056-0.075-1.392-0.356c-0.106-0.088-0.12-0.246-0.032-0.352
						c0.089-0.105,0.247-0.119,0.352-0.032c0.324,0.27,1.156,0.269,1.759,0.194l-1.696-5.137c-0.043-0.131,0.028-0.273,0.159-0.316
						c0.132-0.046,0.273,0.028,0.316,0.159l1.879,5.689l-0.281,0.053C191.07,179.49,190.614,179.57,190.098,179.57z"/>
					<path style="fill:#2A3F7A;" d="M182.274,173.645c-0.153,0-0.304-0.07-0.402-0.202c-0.165-0.222-0.119-0.535,0.103-0.7
						c2.141-1.591,4.035-1.281,4.116-1.266c0.272,0.048,0.454,0.307,0.405,0.579c-0.047,0.271-0.299,0.453-0.577,0.406
						c-0.072-0.011-1.576-0.233-3.348,1.084C182.482,173.613,182.377,173.645,182.274,173.645z"/>
					<path style="fill:#2A3F7A;" d="M190.562,171.545c-0.204,0-0.396-0.126-0.47-0.329c-0.095-0.259,0.039-0.546,0.299-0.641
						c2.507-0.911,4.234-0.072,4.306-0.035c0.247,0.124,0.347,0.424,0.223,0.671c-0.123,0.246-0.42,0.347-0.669,0.224
						c-0.061-0.03-1.441-0.676-3.519,0.08C190.677,171.535,190.619,171.545,190.562,171.545z"/>
					<path style="fill:#FFFFFF;" d="M185.24,179.943l5.875,1.84c0,0-1.584,2.3-4.088,1.124
						C184.522,181.731,185.24,179.943,185.24,179.943z"/>
					<path style="fill:#DA5650;" d="M165.418,172.651l39.644-8.137c0,0-0.688-2.904-8.453-2.152
						C174.165,164.537,165.418,172.651,165.418,172.651z"/>
					<path style="fill:#3051A1;" d="M231.487,219.879l1.243-9.985l3.928,1l-1.053,9.688c-0.129,1.311-1.471,2.138-2.7,1.665l0,0
						C231.945,221.877,231.36,220.901,231.487,219.879z"/>
					<path style="fill:#FFBDB4;" d="M174.84,227.967l9.134-14.998l24.165,14.854l19.608-18.499c0,0,0.991-5.285,3.208-6.171
						c2.217-0.887,6.451-0.812,6.451-0.812s3.157,0.284,2.366,2.964c0.791,0.431,1.335,1.914,0.383,3.063
						c1.071,0.588-0.187,3.343-1.23,4.951c-0.943,1.454-28.622,34.236-28.622,34.236C206.143,249.548,174.84,227.967,174.84,227.967
						z"/>
				</g>
				<path style="fill:#3051A1;" d="M233.063,203.702l1.243-9.985l3.928,1l-1.053,9.688c0,0-1.541,0.59-2.7,1.664l0,0
					C233.521,205.701,232.936,204.724,233.063,203.702z"/>
				<path style="fill:#FFCB61;" d="M247.89,182.285l-0.74,7.53l-5.79-0.57l-9.4-0.92l-4.24-0.42c-2.08-0.21-3.6-2.06-3.39-4.14
					c0.19-1.95,1.83-3.41,3.75-3.41c0.12,0,0.25,0.01,0.38,0.02l4.67,0.46l9.53,0.94L247.89,182.285z"/>
				<path style="fill:#6B84DC;" d="M241.36,189.245l-9.4-0.92c-1.14-3.5-0.1-5.95,1.17-7.49l9.53,0.94
					C240.39,183.815,240.84,187.255,241.36,189.245z"/>
				<path style="fill:#FFAA61;" d="M247.89,182.283c4.344,0.427,3.365,7.935-0.741,7.531
					C242.511,189.358,243.24,181.825,247.89,182.283z"/>
				<path style="fill:#3051A1;" d="M230.555,191.757l18.706,1.961l1.086-6.459l-2.425-0.241c0,0-0.938-0.972,0.06-1.867
					c1.211,0.04,2.937,0.195,3.839,0.282c0.339,0.033,0.586,0.328,0.565,0.667l-1.646,10.327l-20.641-2.278
					C230.1,194.149,229.245,192.782,230.555,191.757z"/>
				<path style="fill:#FF9F61;" d="M227.862,272.571l3.622,33.315c0.218,2.008,7.853,2.826,17.053,1.826
					c9.2-1,16.481-3.439,16.262-5.447l-3.622-33.315L227.862,272.571z"/>
				<path style="fill:#FFCB61;" d="M261.178,268.949c0.218,2.008-7.062,4.447-16.262,5.447c-9.2,1-16.835,0.183-17.053-1.826
					c-0.218-2.008,7.063-4.447,16.262-5.447C253.324,266.124,260.959,266.941,261.178,268.949z"/>
				<path style="fill:#6B96F6;" d="M258.083,269.286c0.131,1.208-5.835,2.847-13.326,3.661c-7.491,0.814-13.67,0.495-13.801-0.712
					c-0.131-1.208,5.835-2.847,13.326-3.661C251.773,267.759,257.952,268.078,258.083,269.286z"/>
				<path style="fill:#3051A1;" d="M258.729,276.237c-0.522,0-0.962-0.405-0.997-0.935c-0.828-12.631-4.421-18.15-7.29-20.557
					c-2.936-2.462-5.62-2.196-5.732-2.186c-0.542,0.058-1.042-0.331-1.106-0.877c-0.064-0.546,0.321-1.041,0.867-1.108
					c0.142-0.019,3.575-0.405,7.185,2.58c4.65,3.845,7.366,11.253,8.072,22.018c0.036,0.551-0.381,1.027-0.933,1.063
					C258.773,276.236,258.751,276.237,258.729,276.237z"/>
				<path style="fill:#FFAEA5;" d="M241.837,250.096c0,0,1.903,2.767,2.415,3.606c0.512,0.838,3.333,1.463,2.906-0.21
					c-0.427-1.673-1.892-4.642-1.892-4.642S242.338,247.388,241.837,250.096z"/>
				<path style="fill:#3051A1;" d="M261.044,274.985c-0.139-1.278-1.288-2.202-2.566-2.063c-1.278,0.139-2.202,1.288-2.063,2.566
					c0.139,1.278,1.288,2.202,2.566,2.063C260.26,277.412,261.183,276.263,261.044,274.985z"/>
				<path style="fill:#3051A1;" d="M172.575,173.417l0.782,17.392c0,0-2.565,2.321,0,0c7.012-8.375,2.92-19.721,2.92-19.721
					L172.575,173.417z"/>
				<polygon style="opacity:0.2;fill:#3C2F71;" points="223.93,386.075 216.22,386.275 207.56,325.685 198.52,298.655 
					205.06,280.495 217.82,321.495 				"/>
			</g>
		</g>
	</g>
	<g>
		<path style="fill:#227E7A;" d="M403.065,377.015c0,0-22.015,31.809,21.596,41.621c43.611,9.812,29.926,37.433,86.61,42.884
			c69.012,6.636,59.592-39.876,120.073-33.345c54.686,5.905,119.75-16.797,84.752-51.159
			C669.793,377.015,403.065,377.015,403.065,377.015z"/>
		<path style="fill:#35A096;" d="M403.065,360.483c0,0-28.027-41.643,18.886-62.602c39.054-17.447-54.51-132.305-10.335-191.519
			c41.044-55.016,118.276,3.467,161.478,16.464c37.365,11.241,85.156,1.89,134.719,47.327c45.226,41.46,25.253,161.785,8.283,190.33
			"/>
		<rect x="403.065" y="360.483" style="fill:#268F8B;" width="313.032" height="16.532"/>
		<g>
			<ellipse style="opacity:0.2;fill:#3C2F71;" cx="666.961" cy="398.099" rx="51.78" ry="6.992"/>
			<g>
				<g>
					<path style="fill:#2A3F7A;" d="M638.508,175.242c0,0-7.475-2.865-5.501-9.591c3.968,0.125,5.501,0,5.501,0
						s-3.841-4.11-2.002-8.719c8.44,1.868,17.757-2.117,23.112,2.117c3.587-2.117,5.439,1.62,5.439,1.62l-2.402,0.497
						c0,0,9.793,22.659-1.542,24.412"/>
					<path style="fill:#FFBDB4;" d="M648.042,189.352l2.83,10.17l-2.795,2.214c0,0,13.105,2.534,20.237-2.484l-3.898-2.331
						l-2.803-16.901"/>
					<path style="fill:#FFBDB4;" d="M637.712,170.902c0,0-0.123,10.154,1.385,15.432c1.508,5.278,5.011,9.751,10.668,7.761
						c5.657-1.991,10.153-8.099,10.849-13.205c3.045-1.7,3.612-3.65,3.025-6.546c-0.524-2.582-4.405-2.586-3.657,0.931
						c-0.654,1.826-1.805,1.965-1.805,1.965l-3.128-8.677C655.05,168.561,644.352,164.281,637.712,170.902z"/>
					<path style="fill:#2A3F7A;" d="M644.117,182.224c0,0-4.811,1.059-3.965,4.65c2.718-0.631,4.583-2.512,4.583-2.512
						s3.073,1.64,6.043,0.802C649.045,180.304,644.117,182.224,644.117,182.224z"/>
					<path style="fill:#2A3F7A;" d="M640.788,177.033c0.145,0.569-0.1,1.121-0.545,1.235c-0.446,0.113-0.924-0.256-1.069-0.824
						c-0.145-0.569,0.1-1.122,0.545-1.235C640.165,176.095,640.644,176.464,640.788,177.033z"/>
					<path style="fill:#2A3F7A;" d="M649.003,176.485c0.145,0.569-0.099,1.121-0.545,1.235c-0.446,0.113-0.924-0.256-1.069-0.824
						c-0.145-0.569,0.099-1.122,0.545-1.235C648.38,175.547,648.859,175.916,649.003,176.485z"/>
					<path style="fill:#EE6F79;" d="M642.887,182.653l0.469-6.68c0.009-0.138,0.133-0.246,0.267-0.232
						c0.138,0.01,0.241,0.129,0.232,0.267l-0.427,6.1c0.599-0.073,1.604-0.28,1.92-0.715c0.08-0.112,0.238-0.136,0.349-0.056
						c0.112,0.081,0.137,0.237,0.056,0.349c-0.578,0.799-2.376,0.936-2.579,0.948L642.887,182.653z"/>
					<path style="fill:#2A3F7A;" d="M648.956,173.935c-2.394,0-3.895-1.247-3.979-1.318c-0.29-0.248-0.325-0.684-0.078-0.975
						c0.247-0.289,0.683-0.325,0.972-0.08l0,0c0.088,0.074,2.192,1.781,5.368,0.537c0.356-0.138,0.756,0.038,0.895,0.392
						c0.139,0.356-0.036,0.757-0.393,0.896C650.72,173.786,649.785,173.935,648.956,173.935z"/>
					<path style="fill:#2A3F7A;" d="M637.617,175.758c-0.101,0-0.202-0.023-0.298-0.072c-0.322-0.164-0.45-0.558-0.285-0.88
						c0.059-0.116,1.492-2.829,5.519-2.418c0.36,0.036,0.622,0.357,0.585,0.716c-0.036,0.361-0.382,0.61-0.715,0.586
						c-3.152-0.31-4.212,1.691-4.223,1.711C638.084,175.627,637.854,175.758,637.617,175.758z"/>
				</g>
				<g>
					<path style="fill:#3C3563;" d="M616.569,206.508l-7.151,70.498h3.675l7.837-70.033c0.145-1.3-0.872-2.437-2.179-2.437l0,0
						C617.625,204.537,616.682,205.389,616.569,206.508z"/>
					<path style="fill:#DA5650;" d="M611.531,273.801c5.612,0.208,11.02,10.273,11.02,13.448s-23.348,0.56-23.908-0.934
						C598.083,284.821,606.488,273.614,611.531,273.801z"/>
					<path style="fill:#DA5650;" d="M625.308,288.375c-0.209,2.684-6.964,4.347-15.089,3.716s-14.542-3.32-14.333-6.004
						c0.209-2.684,6.965-4.348,15.089-3.716C619.1,283.003,625.517,285.691,625.308,288.375z"/>
					<path style="opacity:0.2;fill:#3C2F71;" d="M621.808,288.103c-0.101,1.297-5.202,1.958-11.394,1.476
						c-6.192-0.482-11.129-1.923-11.028-3.22c0.101-1.297,5.202-1.958,11.394-1.476
						C616.971,285.365,621.909,286.806,621.808,288.103z"/>
				</g>
				<path style="fill:#FFAEA5;" d="M622.551,249.208l34.82-1.729l3.496-18.518l-38.53,11.867l-4.834-3.232l-0.221,1.971
					c0,0-0.864,1.204-1.342,2.293c-1.23-1.394-2.433-5.171-2.433-5.171s-2.137-0.17-1.488,2.002
					c-1.41,0.549-1.073,2.422-0.349,3.046c-1.173,0.699-0.67,2.746,0.075,3.096c-1.198,0.899,0.117,2.421,1.797,3.445
					c1.638,0.999,1.473-1.348,1.473-1.348s1.285-0.508,0.874-2.122c0.774-0.449,0.954-1.216,0.954-1.216l-0.679,5.974
					C616.164,249.564,617.933,251.643,622.551,249.208z"/>
				<path style="fill:#3C3563;" d="M691.615,385.118l3.455,8.036c0,0-13.002,4.237-12.993,6.075
					c4.988-0.025,25.737-1.193,25.737-1.193l-4.041-14.312L691.615,385.118z"/>
				<path style="fill:#3C3563;" d="M641.998,382.673l-0.068,10.924c0,0-10.633,4.465-10.585,6.302
					c4.986-0.133,24.034-0.583,24.034-0.583l-0.573-17.002L641.998,382.673z"/>
				<path style="fill:#3051A1;" d="M639.924,385.968l7.913-0.107l1.01-0.016l7.711-0.148l1.12-55.983l8.815-31.06l6.724,34.905
					l16.016,53.215l17.59-3.07l-11.997-55.805c0,0-2.233-55.187-6.382-64.844c-20.992-0.745-46.435,5.136-46.435,5.136
					s-4.013,45.282-5.302,53C635.667,327.38,639.924,385.968,639.924,385.968z"/>
				<path style="fill:#DA5650;" d="M641.509,272.495c10.65,1.915,46.936-9.439,46.936-9.439s-3.947-22.679-4.363-27.566
					c-1.315-15.445-4.892-28.803-8.477-33.41c-7.259-9.329-14.219-7.041-14.219-7.041s-8.967-0.655-16.924,10.639
					c-5.817,8.257-8.24,20.13-7.343,35.874c0.36,6.326,1.029,12.812,1.984,18.883C639.761,264.726,640.573,268.812,641.509,272.495z
					"/>
				<path style="opacity:0.2;fill:#3C2F71;" d="M639.103,260.436c3.954,0.738,10.519,0.612,16.816-4.719
					c16.846-14.263,19.686-33.607,19.686-33.607l-38.486,19.443C637.479,247.879,638.148,254.364,639.103,260.436z"/>
				<path style="fill:#DA5650;" d="M646.591,196.752l1.272,4.686c0,0,13.763,2.425,19.591-3.027
					c-0.223-2.924-1.536-7.939-1.536-7.939S656.497,193.405,646.591,196.752z"/>
				<path style="fill:#3051A1;" d="M679.833,269.715l-20.137-56.145c0,0-2.265-13.162,11.988-15.532
					c-2.152-5.473-15.322-0.253-18.154,11.46c-2.872,11.882,0.093,16.941,0.093,16.941l-11.987,0.838c0,0,0.076-20.069,6.227-25.839
					c-10.254,5.315-19.745,31.715-6.354,71.057C648.693,281.243,679.833,269.715,679.833,269.715z"/>
				<path style="fill:#FFBDB4;" d="M613.056,228.961c1.5,0.869,32.645,23.614,32.645,23.614
					c4.523,0.909,29.904-30.469,29.904-30.469l-15.909-8.536l-15.438,20.674l-21.883-11.421c0,0,0.245-5.61-2.48-6.607
					c0,0-0.295,2.015-1.519,2.399c-0.71,0.222-2.948-1.334-2.948-1.334s-3.156-0.359-2.059,2.535
					c-1.219,0.998-1.183,1.963-0.739,2.957c-1.108,1.105-0.881,2.34-0.158,3.116C611.199,226.885,611.944,228.316,613.056,228.961z"
					/>
				<polygon style="opacity:0.2;fill:#3C2F71;" points="648.848,385.846 656.559,385.698 657.679,329.715 666.494,298.655 
					656.888,283.903 647.283,325.875 				"/>
				<path style="opacity:0.2;fill:#3C2F71;" d="M673.413,277.006h12.84v5.998c0,3.304-2.67,6.141-5.972,6.009
					C677.221,288.891,674.011,286.416,673.413,277.006z"/>
			</g>
		</g>
		<g>
			<path style="fill:#DEE6ED;" d="M473.172,422.766c-1.766,0.734-2.976,2.235-3.419,3.954c0.39-0.454,0.876-0.836,1.467-1.081
				c2.017-0.839,4.332,0.117,5.171,2.134c0.838,2.017-0.117,4.332-2.134,5.17c-0.59,0.245-1.204,0.321-1.801,0.277
				c1.532,0.899,3.449,1.099,5.215,0.365c2.988-1.242,4.403-4.671,3.16-7.658C479.588,422.939,476.159,421.524,473.172,422.766z"/>
			<path style="fill:#DEE6ED;" d="M503.355,410.217c1.766-0.734,3.683-0.534,5.215,0.365c-0.597-0.044-1.21,0.032-1.801,0.277
				c-2.017,0.839-2.972,3.154-2.134,5.171s3.154,2.972,5.171,2.134c0.59-0.245,1.076-0.627,1.466-1.081
				c-0.443,1.72-1.653,3.22-3.419,3.954c-2.988,1.242-6.416-0.173-7.659-3.16C498.952,414.888,500.367,411.459,503.355,410.217z"/>
			
				<rect x="477.528" y="419.968" transform="matrix(0.9234 -0.3839 0.3839 0.9234 -124.4212 220.5459)" style="fill:#DEE6ED;" width="25.474" height="3.968"/>
		</g>
		<g>
			<ellipse style="opacity:0.2;fill:#3C2F71;" cx="485.558" cy="398.099" rx="77.494" ry="6.992"/>
			<g>
				<polyline style="fill:#FFAEA5;" points="509.228,261.866 540.542,273.799 541.113,283.903 507.905,277.462 				"/>
				<g>
					<path style="fill:#3C3563;" d="M562.875,252.983c0,0-0.257-4.817,6.253-4.817c6.509,0,6.81,5.785,6.81,5.785L562.875,252.983z"
						/>
					<path style="fill:#FFFFFF;" d="M597.813,255.327c0,4.814,0,85.031,0,85.031l-49.077,0.793h-12.849c0,0,0-80.815,0-85.824
						c0-1.304,4.217-2.26,10.452-2.869C563.981,250.731,597.813,251.774,597.813,255.327z"/>
					<path style="fill:#3C3563;" d="M586.655,344.304h-24.856c-2.928,0-5.301,2.373-5.301,5.301v0c0,2.928,2.373,5.301,5.301,5.301
						h29.524L586.655,344.304z"/>
					<path style="fill:#E9EEF3;" d="M592.016,315.397c0,0,0-16.956,0-30.409c0-35.984-36.212-35.984-36.212,0.037
						c0,21.525,0,31.614,0,31.614L592.016,315.397z"/>
					<path style="fill:#DEE6ED;" d="M569.127,345.238v38.644c0,0,2.786,1.964,11.518,1.964c8.732,0,11.518-1.964,11.518-1.964
						v-40.12"/>
					<path style="fill:#DEE6ED;" d="M618.703,324.461c0,0,0.935,17.354-6.237,29.438c-3.825,6.455-9.954,11.399-19.777,11.388
						c-27.46-0.022-27.493-24.135-27.493-24.135h-9.389V315.42h62.896C628.255,321.179,618.703,324.461,618.703,324.461z"/>
					<path style="fill:#E9EEF3;" d="M546.339,252.459v88.693h-10.452c0,0,0-80.815,0-85.824
						C535.887,254.023,540.104,253.067,546.339,252.459z"/>
					<path style="fill:#CCD8E3;" d="M586.61,287.465c0,12.1-5.31,21.91-11.87,21.91c-0.56,0-1.11-0.07-1.65-0.21
						c-5.77-1.48-10.22-10.63-10.22-21.7c0-11.08,4.45-20.23,10.22-21.71c0.54-0.14,1.09-0.21,1.65-0.21
						C581.3,265.545,586.61,275.355,586.61,287.465z"/>
					<path style="fill:#FFFFFF;" d="M583.32,287.465c0,11.07-4.45,20.22-10.23,21.7c-5.77-1.48-10.22-10.63-10.22-21.7
						c0-11.08,4.45-20.23,10.22-21.71C578.87,267.235,583.32,276.385,583.32,287.465z"/>
					<path style="fill:#CCD8E3;" d="M612.466,353.898c-10.432-17.767-45.618-29.438-45.618-29.438h51.855
						C618.703,324.461,619.638,341.815,612.466,353.898z"/>
				</g>
				<g>
					<path style="fill:#FFE698;" d="M484.659,224.505c0,0-3.647,3.284-7.983-3.973c-2.805-4.694-7.759-13.25-1.755-15.624
						c-3.268-4.224,2.107-10.117,11.239-9.971c9.132,0.146,17.303-0.156,17.303-0.156s5.129,12.95-0.469,18.761"/>
					<g>
						<path style="fill:#FFBDB4;" d="M494.591,226.442l2.121,11.029l1.007,2.757c0,0-9.973,3.597-18.245,0.838l3.064-3.352
							l-2.168-16.994"/>
						<path style="fill:#FFBDB4;" d="M500.645,205.122c0,0,3.033,9.691,3.104,15.18c0.071,5.489-2,10.78-7.99,10.497
							c-5.99-0.282-12.132-3.894-14.265-8.586c-4.05-0.07-4.428-3.407-4.697-6.35c-0.24-2.623,3.37-4.473,4.907-0.703l1.001,3.065
							l4.659,0.251l-4.892-11.625C482.472,206.851,492.383,200.687,500.645,205.122z"/>
						<path style="fill:#2A3F7A;" d="M499.73,211.878c0.025,0.586,0.417,1.046,0.877,1.026c0.46-0.019,0.812-0.51,0.787-1.097
							c-0.025-0.586-0.417-1.046-0.877-1.026C500.058,210.801,499.705,211.292,499.73,211.878z"/>
						<path style="fill:#2A3F7A;" d="M490.6,213.747c0.025,0.586,0.417,1.046,0.877,1.026c0.459-0.02,0.812-0.51,0.787-1.097
							c-0.025-0.586-0.417-1.046-0.877-1.026C490.928,212.67,490.576,213.161,490.6,213.747z"/>
						<path style="fill:#EE6F79;" d="M497.382,218.094c-0.493,0-1.006-0.077-1.34-0.332c-0.11-0.084-0.131-0.241-0.047-0.35
							c0.083-0.109,0.24-0.13,0.35-0.047c0.43,0.329,1.451,0.236,2.045,0.134l-2.161-5.721c-0.049-0.129,0.016-0.273,0.146-0.322
							c0.125-0.048,0.272,0.016,0.321,0.145l2.367,6.265l-0.278,0.064C498.67,217.956,498.043,218.094,497.382,218.094z"/>
						<path style="fill:#FFC16B;" d="M488.236,210.853c-0.176,0-0.348-0.094-0.438-0.259c-0.133-0.242-0.044-0.546,0.198-0.679
							c2.604-1.429,5.174-1.446,5.282-1.446c0.276,0,0.499,0.224,0.5,0.5c0,0.276-0.224,0.5-0.499,0.5
							c-0.024,0-2.432,0.021-4.803,1.323C488.4,210.833,488.318,210.853,488.236,210.853z"/>
						<path style="fill:#FFC16B;" d="M501.739,209.057c-0.107,0-0.216-0.034-0.307-0.105l0,0c-0.061-0.047-1.512-1.126-3.462,0.007
							c-0.238,0.137-0.545,0.059-0.684-0.181c-0.139-0.239-0.058-0.545,0.182-0.683c2.555-1.485,4.499,0.006,4.58,0.07
							c0.217,0.171,0.254,0.485,0.083,0.702C502.033,208.992,501.886,209.057,501.739,209.057z"/>
					</g>
					<path style="fill:#3C3563;" d="M444.251,392.614l-13.168-3.733c0,0-16.405,5.36-17.742,4.1
						c3.421-3.63,18.427-18.007,18.427-18.007l12.482,5.993V392.614z"/>
					<path style="fill:#3C3563;" d="M545.078,378.104l0.347,10.919c0,0,10.744,4.191,10.742,6.029
						c-4.988-0.005-24.042,0.031-24.042,0.031l0.139-17.011L545.078,378.104z"/>
					<path style="fill:#3051A1;" d="M548.903,382.992l-18.315,1.311l-2.431-42.065l-28.865,2.849l-9.136,49.255h-47.08l-2.47-15.98
						l29.396-6.283c0,0-9.128-55.375-5.803-65.346c20.856-2.5,46.702,1.23,46.702,1.23s39.157,11.716,41.088,19.299
						C553.544,333.341,548.903,382.992,548.903,382.992z"/>
					<polygon style="opacity:0.2;fill:#3C2F71;" points="475.399,331.892 485.558,323.474 488.25,325.285 477.727,335.219 					"/>
					<polygon style="opacity:0.2;fill:#3C2F71;" points="499.292,345.087 502.239,324.461 533.749,331.322 540.542,384.073 
						530.588,384.303 528.157,342.237 					"/>
					<path style="fill:#DA5650;" d="M464.199,306.732c0,0,2.035-22.93,2.04-27.834c0.017-15.5,2.463-29.111,5.65-34.002
						c6.453-9.904,13.58-8.207,13.58-8.207s8.881-1.404,17.756,9.185c6.488,7.741,7.44,21.13,7.865,36.894
						c0.171,6.334-5.25,19.258-5.694,25.388C505.099,312.485,464.199,306.732,464.199,306.732z"/>
					<path style="opacity:0.2;fill:#3C2F71;" d="M502.652,297.448c-3.878,1.067,0.065,4.032-6.656-0.753
						c-17.981-12.802-22.431-31.841-22.431-31.841l29.188,15.678C502.924,286.867,503.096,291.318,502.652,297.448z"/>
					<path style="fill:#DA5650;" d="M500.355,237.157l-0.875,4.776c0,0-13.512,3.569-19.775-1.376
						c-0.023-2.932,0.866-8.04,0.866-8.04S490.203,234.651,500.355,237.157z"/>
					<path style="fill:#3051A1;" d="M473.338,312.647l15.365-57.634c0,0,1.155-13.306-13.246-14.473
						c1.687-5.634,15.247-1.536,19.049,9.899c3.857,11.599,1.326,16.889,1.326,16.889l12.016-0.168c0,0-1.756-19.992-8.368-25.226
						c10.663,4.438,20.611,21.757,7.441,70.853C500.495,322.105,473.338,312.647,473.338,312.647z"/>
					<path style="fill:#FFBDB4;" d="M532,309.769c0,0-29.057-8.876-33.85-12.321c-10.279-7.388-24.585-32.594-24.585-32.594
						l15.137-9.842l20.324,29.686l26.328,15.357c0,0,4.884-2.898,6.484-2.431c1.6,0.467-2.284,3.716-2.284,3.716
						s2.54,0.859,6.64,2.101c5.222,1.582,8.356,3.968-1.766,2.095c7.714,2.531,9.823,4.46,0.317,3.206
						c4.013,3.323,6.337,6.174-1.901,2.267c4.289,3.476,4.097,4.755-3.38,1.69C535.887,311.636,532,309.769,532,309.769z"/>
					<polygon style="fill:#3C3563;" points="509.841,303.632 510.901,307.961 461.931,314.735 462.753,305.869 					"/>
					<polyline style="fill:#E9EEF3;" points="461.776,313.858 460.029,302.342 459.103,301.109 459.103,297.881 460.029,297.881 
						461.262,300.414 460.851,302.034 462.907,313.858 					"/>
					<path style="fill:#FFC16B;" d="M466.043,313.193c0,0,2.57-9.459,3.187-10.795c0.617-1.337,3.29,0.206,2.982,1.234
						c-0.308,1.028-3.072,9.562-3.072,9.562"/>
					<path style="fill:#FFC16B;" d="M468.271,316.069c0,0,4.056-8.923,4.88-10.143c0.823-1.22,3.214,0.731,2.745,1.697
						c-0.469,0.965-4.568,8.944-4.568,8.944"/>
					<path style="fill:#3C3563;" d="M468.716,309.769c0,0-7.608-0.894-8.431,1.779c-0.822,2.673-3.598,22.722,5.758,23.647
						c9.356,0.925,9.356-25.426,9.356-25.426H468.716z"/>
					<path style="fill:#E9EEF3;" d="M466.043,320.75c0,1.505-0.921,2.725-2.056,2.725c-1.136,0-2.056-1.22-2.056-2.725
						c0-1.505,0.921-2.724,2.056-2.724C465.122,318.025,466.043,319.245,466.043,320.75z"/>
					<path style="fill:#EE6F79;" d="M497.164,220.474c-1.685,0-2.467-0.542-2.503-0.568c-0.112-0.081-0.139-0.236-0.058-0.349
						c0.08-0.112,0.236-0.139,0.347-0.059l0,0c0.009,0.006,0.866,0.584,2.752,0.457c0.138-0.01,0.257,0.095,0.266,0.232
						c0.01,0.138-0.095,0.257-0.232,0.267C497.535,220.468,497.344,220.474,497.164,220.474z"/>
				</g>
			</g>
		</g>
		<g>
			<g>
				<path style="fill:#FFFFFF;" d="M627.271,409.214c-0.498,0-0.9-0.403-0.9-0.9c0-7.715-5.841-17.034-13.094-17.034h-22.283
					c-10.263,0-13.352,15.151-13.382,15.304c-0.096,0.488-0.57,0.805-1.056,0.711c-0.488-0.096-0.806-0.568-0.711-1.056
					c0.033-0.169,0.833-4.191,3.047-8.273c3.012-5.553,7.197-8.487,12.102-8.487h22.283c6.888,0,14.894,8.227,14.894,18.835
					C628.171,408.812,627.768,409.214,627.271,409.214z"/>
				<path style="fill:#DA5650;" d="M638.581,440.165h-73.596v-30.752c0-2.499,2.026-4.525,4.526-4.525h64.545
					c2.499,0,4.525,2.026,4.525,4.525V440.165z"/>
				<path style="opacity:0.2;fill:#3C2F71;" d="M638.581,440.165h-18.339v-30.211c0-2.798,2.268-5.067,5.067-5.067h8.747
					c2.499,0,4.525,2.026,4.525,4.525V440.165z"/>
				<path style="fill:#3C2F71;" d="M579.67,421.227L579.67,421.227c-2.072,0-3.752-1.68-3.752-3.752v-3.752h7.503v3.752
					C583.422,419.547,581.742,421.227,579.67,421.227z"/>
				<path style="fill:#3C2F71;" d="M606.708,421.227L606.708,421.227c-2.072,0-3.752-1.68-3.752-3.752v-3.752h7.503v3.752
					C610.459,419.547,608.78,421.227,606.708,421.227z"/>
				<rect x="564.986" y="435.689" style="opacity:0.2;fill:#3C2F71;" width="73.596" height="4.476"/>
			</g>
			<path style="fill:#FFE698;" d="M608.102,392.46h-12.209c-1.302,0-2.357-1.055-2.357-2.357l0,0c0-1.302,1.055-2.357,2.357-2.357
				h12.209c1.302,0,2.357,1.055,2.357,2.357l0,0C610.459,391.405,609.404,392.46,608.102,392.46z"/>
		</g>
		<rect x="430.467" y="150.566" style="fill:#227E7A;" width="98.014" height="8.962"/>
		<polygon style="fill:#E5E5F8;" points="524.717,150.566 511.803,150.566 511.803,132.051 524.717,132.051 524.717,136.56 
			523.005,140.339 524.717,144.255 523.623,146.935 		"/>
		<rect x="503.751" y="130.58" style="fill:#FFFFFF;" width="16.104" height="19.986"/>
		<polygon style="fill:#E5E5F8;" points="500.051,150.566 487.137,150.566 487.137,132.051 500.051,132.051 499.346,136.105 
			500.926,138.922 499.415,142.014 500.926,145.243 		"/>
		<rect x="481.489" y="130.58" style="fill:#FFFFFF;" width="16.104" height="19.986"/>
		<g>
			<rect x="554.381" y="146.124" style="fill:#227E7A;" width="39.059" height="48.056"/>
			<rect x="559.339" y="151.89" style="fill:#268F8B;" width="29.142" height="36.525"/>
		</g>
	</g>
</g>
</svg>
